<svg width="1280" height="156" viewBox="0 0 1280 156" fill="none" xmlns="http://www.w3.org/2000/svg">
<g clip-path="url(#clip0_1_217)">
<path d="M669.085 96.82C668.765 96.04 642.185 43.38 641.755 42.66C640.355 39.31 637.905 36.36 634.525 34.39C626.265 29.55 615.655 32.32 610.815 40.58C607.495 46.24 607.755 53.02 610.915 58.27C611.235 59.05 636.675 109.45 637.105 110.18C637.425 110.96 637.805 111.71 638.245 112.44C639.645 115.79 642.095 118.74 645.475 120.71C653.735 125.55 664.345 122.78 669.185 114.52C672.505 108.86 672.245 102.08 669.085 96.83V96.82Z" fill="#333333"/>
<path d="M638.395 61.18C641.305 58.08 643.085 53.91 643.085 49.33C643.095 39.76 635.335 32 625.765 32C619.875 32 614.685 34.94 611.545 39.42C610.975 40.03 567.825 93.21 567.345 93.89C564.435 96.99 562.655 101.16 562.655 105.74C562.655 115.31 570.415 123.07 579.985 123.07C585.875 123.07 591.065 120.13 594.195 115.65C594.765 115.04 637.915 61.86 638.395 61.18Z" fill="black"/>
<path d="M712.655 61.18C715.565 58.08 717.345 53.91 717.345 49.33C717.345 39.76 709.585 32 700.015 32C694.125 32 688.935 34.94 685.805 39.42C685.235 40.03 642.085 93.21 641.605 93.89C638.695 96.99 636.915 101.16 636.915 105.74C636.915 115.31 644.675 123.07 654.245 123.07C660.135 123.07 665.325 120.13 668.455 115.65C669.025 115.04 712.175 61.86 712.655 61.18Z" fill="black"/>
</g>
<defs>
<clipPath id="clip0_1_217">
<rect width="154.69" height="91.08" fill="white" transform="translate(562.655 32)"/>
</clipPath>
</defs>
</svg>
